<svg xmlns="http://www.w3.org/2000/svg" width="1000" height="213.56" viewBox="270.82 288.75 750 160.17" style="isolation:isolate">

  <path fill="#fff" d="M283.18 288.75c-3.67 0-6.64 1.07-8.93 3.2-2.29 2.14-3.43 4.96-3.43 8.47 0 3.5 1.14 6.37 3.43 8.58s5.26 3.32 8.93 3.32c3.66 0 6.63-1.1 8.92-3.32 2.29-2.21 3.43-5.07 3.43-8.58 0-3.5-1.14-6.33-3.43-8.47-2.29-2.13-5.26-3.2-8.92-3.2zm37.93 0c-3.67 0-6.64 1.07-8.93 3.2-2.29 2.14-3.43 4.96-3.43 8.47 0 3.5 1.14 6.37 3.43 8.58s5.26 3.32 8.93 3.32c3.66 0 6.63-1.1 8.92-3.32 2.29-2.21 3.43-5.07 3.43-8.58 0-3.5-1.14-6.33-3.43-8.47-2.29-2.13-5.26-3.2-8.92-3.2zm158.58 0c-3.3 0-7.4 1.98-7.4 5.44.04-.02.04 9.92 0 29.82 0 .81-.4 1.22-1.22 1.22h-16.5c-2.1 0-3.15 1.05-3.15 3.15v9.34c0 2.1 1.05 3.15 3.15 3.15h16.5c.81 0 1.22.4 1.22 1.2v76.08c0 11.8 2.98 19.87 8.96 24.23 5.98 4.36 14.78 6.54 26.4 6.54h8.25c2.1-.16 3.15-1.3 3.15-3.4v-11.16c0-2.1-1.05-3.15-3.15-3.15h-5.33c-7.43 0-12.88-1.13-16.36-3.38-3.47-3.15-5.2-8.15-5.2-15v-70.75c0-.81.4-1.21 1.2-1.21h26.41c2.1 0 3.15-1.05 3.15-3.15v-9.34c0-2.1-1.05-3.15-3.15-3.15h-26.4c-.81 0-1.22-.4-1.22-1.22V294.2c0-3.25-4.5-5.44-9.31-5.44zm300.36 30.96a3.7 3.7 0 00-2.63.94c-.67.63-1 1.46-1 2.49 0 1.03.33 1.87 1 2.52.67.65 1.55.98 2.63.98 1.07 0 1.95-.33 2.62-.98.67-.65 1-1.49 1-2.52s-.33-1.86-1-2.49a3.7 3.7 0 00-2.62-.94zm-198.43 1.34c-24.25 0-57.51 14.8-57.51 64.99 0 51 34.52 62.88 57.51 62.88 23.64 0 40.64-8.86 49.87-25.93 11.72 20.27 33.07 25.93 48.94 25.93 37.07 0 57.85-21.8 57.85-62.88 0-50.28-30.37-64.99-57.85-64.99-16.62 0-37.46 6.95-48.94 27.46-10.84-20.54-31.03-27.46-49.87-27.46zm-178.92.9c-14.54 0-25.36 5.73-32.47 17.22-.16.48-.4.6-.72.36-.33-.24-.49-.6-.49-1.09v-10.3c0-3.59-4.39-6-8.6-6s-8.6 2.41-8.6 6v117.63c0 2.1 1.05 3.15 3.15 3.15h10.9c2.1 0 3.15-1.05 3.15-3.15V365.1c.81-7.59 3.92-13.72 9.33-18.4 5.41-4.7 12.24-7.04 20.47-7.04 8.56 0 15.5 2.8 20.84 8.36 5.33 5.58 8 12.89 8 21.93v75.83c0 2.1 1.04 3.15 3.14 3.15h10.9c2.1 0 3.16-1.05 3.16-3.15v-79.22c0-12.76-3.84-23.83-11.51-33.22-7.67-7.6-17.89-11.39-30.65-11.39zm-119.19.45c-5.11 0-9.76 2.92-9.76 5.83.06.02-.03 114.58 0 114.51 0 4.9 5.73 6.18 9.43 6.18 3.46 0 9.42-.81 9.42-6.18V328.23c0-2.72-3.97-5.83-9.09-5.83zm37.93 0c-5.11 0-9.76 2.92-9.76 5.83.06.02-.03 114.58 0 114.51 0 4.9 5.73 6.18 9.43 6.18 3.46 0 9.42-.81 9.42-6.18V328.23c0-2.72-3.97-5.83-9.09-5.83zm603.23 1.61c-.58 0-.87.3-.87.88v7.54c0 .22-.12.33-.34.33h-3.84c-.58 0-.87.3-.87.88v2.22c0 .58.29.87.87.87h3.84c.22 0 .34.12.34.34v21.13c0 3.28.83 5.52 2.49 6.73 1.66 1.21 4.1 1.82 7.33 1.82h2.29c.58-.04.87-.36.87-.94v-2.36c0-.58-.29-.87-.87-.87h-1.48c-2.06 0-3.58-.44-4.54-1.32-.97-.87-1.45-2.38-1.45-4.54v-19.65c0-.22.11-.34.34-.34h7.33c.58 0 .88-.29.88-.87v-2.22c0-.58-.3-.88-.88-.88h-7.33c-.23 0-.34-.1-.34-.33v-7.54c0-.58-.3-.88-.88-.88h-2.89zm-56 8.22c-3.27 0-6.06.87-8.37 2.62a12.46 12.46 0 00-4.61 7c-.27.99-.44 2.05-.5 3.2-.07 1.14-.1 2.68-.1 4.6 0 3.95.42 7.05 1.27 9.3a12.27 12.27 0 004.65 6.18c2.15 1.48 4.8 2.22 7.94 2.22 2.96 0 5.52-.66 7.67-1.98a12.53 12.53 0 004.85-5.35c.26-.45.13-.83-.4-1.14l-1.96-1.08a.73.73 0 00-.67-.07.81.81 0 00-.47.47 8.96 8.96 0 01-3.4 3.67c-1.46.88-3.2 1.34-5.22 1.38a9.8 9.8 0 01-6.02-1.78 8.25 8.25 0 01-3.13-4.82c-.27-1.03-.4-2.66-.4-4.9 0-.23.1-.34.33-.34h21.54c.58 0 .87-.3.87-.88 0-3.05-.13-5.3-.4-6.73-.63-3.68-2.05-6.53-4.28-8.55-2.22-2.01-5.28-3.02-9.18-3.02zm-62.24.06c-4.04 0-7.05 1.35-9.02 4.04-.05.14-.11.17-.2.1-.1-.07-.14-.17-.14-.3v-2.5c0-.57-.29-.87-.87-.87h-3.03c-.58 0-.88.3-.88.88v32.3c0 .59.3.88.88.88h3.03c.58 0 .87-.3.87-.88v-22.4a7.56 7.56 0 012.6-5.12 8.38 8.38 0 015.68-1.95c2.38 0 4.3.77 5.79 2.32 1.48 1.55 2.22 3.57 2.22 6.09v21.06c0 .59.29.88.87.88h3.03c.58 0 .88-.3.88-.88v-22c0-3.55-1.07-6.38-3.2-8.48-2.13-2.11-4.97-3.17-8.51-3.17zm95.16.14c-3.68 0-6.65.85-8.92 2.55-2.27 1.71-3.4 4-3.4 6.87 0 1.97.56 3.6 1.68 4.88a11.7 11.7 0 004.1 3 48.2 48.2 0 006.2 2.15 68.5 68.5 0 014.64 1.54c1.04.4 1.91.97 2.63 1.69a3.73 3.73 0 011.08 2.76c0 1.61-.72 2.95-2.16 4-1.43 1.05-3.32 1.58-5.65 1.58a9.65 9.65 0 01-5.79-1.65c-1.52-1.1-2.29-2.39-2.29-3.87v-.6a.52.52 0 00-.23-.44 1.08 1.08 0 00-.64-.17h-2.9c-.58 0-.87.3-.87.88v.6c0 1.66.53 3.17 1.58 4.51a10.83 10.83 0 004.51 3.23c1.95.81 4.18 1.21 6.7 1.21 3.8 0 6.85-.87 9.12-2.62a8.4 8.4 0 003.4-7c0-2.06-.59-3.75-1.76-5.05a11.45 11.45 0 00-4.17-2.96 54.93 54.93 0 00-6.32-2.09c-2.83-.8-4.9-1.61-6.23-2.42a3.87 3.87 0 01-1.99-3.5c0-1.61.7-2.88 2.1-3.8 1.38-.92 3.22-1.38 5.51-1.38 2.47 0 4.43.52 5.89 1.55s2.19 2.3 2.19 3.83v.4c0 .32.29.48.87.48h2.76c.58 0 .87-.3.87-.88 0-1.75-.51-3.33-1.54-4.74a10.24 10.24 0 00-4.41-3.33 16.7 16.7 0 00-6.56-1.21zm-123.03.33c-.58 0-.87.3-.87.88v32.3c0 .59.3.88.87.88h3.03c.59 0 .88-.3.88-.88v-32.3c0-.58-.3-.88-.88-.88h-3.03zm45.7 0a.85.85 0 00-.57.2.6.6 0 00-.24.48c0 .13.03.24.07.33l10.9 32.3c.14.5.47.75 1.01.75h3.64c.53 0 .87-.25 1-.74l10.84-32.24c.1-.31.08-.56-.03-.74-.11-.18-.33-.27-.64-.27l-3.43-.07c-.5 0-.81.25-.95.74l-8.4 26.18c-.05.18-.12.27-.21.27-.1 0-.16-.09-.2-.27l-8.41-26.18c-.14-.49-.45-.74-.95-.74h-3.43zm44.42 3.64c2.29 0 4.18.6 5.68 1.78a8.5 8.5 0 013 4.81c.18.9.31 2.34.4 4.31 0 .22-.1.34-.33.34h-17.3c-.22 0-.34-.12-.34-.34.1-2.15.27-3.68.54-4.58a8.02 8.02 0 012.83-4.6 8.58 8.58 0 015.52-1.72zm-287.06.32c31.27 0 41.3 20.74 41.3 49.32 0 32.53-18.86 47.1-41.3 47.1-22.74 0-40.02-15.16-40.02-47.1 0-36.7 20.56-49.32 40.02-49.32zm98.81 0c31.27 0 41.3 20.74 41.3 49.32 0 32.53-18.86 47.1-41.3 47.1-22.74 0-40.02-15.16-40.02-47.1 0-36.7 20.56-49.32 40.02-49.32zm251.1 30.77c-.58 0-.87.3-.87.87v45.36c0 .59.3.88.87.88h3.03c.59 0 .88-.3.88-.88v-22.4a7.56 7.56 0 012.59-5.12 8.38 8.38 0 015.69-1.95c2.37 0 4.3.77 5.78 2.32 1.48 1.55 2.22 3.58 2.22 6.09v21.06c0 .59.3.88.88.88h3.03c.58 0 .87-.3.87-.88v-22c0-3.55-1.06-6.37-3.2-8.48-2.12-2.11-4.96-3.16-8.5-3.16-4.04 0-7.05 1.34-9.03 4.03-.04.14-.1.17-.2.1-.09-.06-.13-.16-.13-.3v-15.55c0-.58-.3-.87-.88-.87h-3.03zm-154.11 4.3c-.58 0-.87.3-.87.88v7.54c0 .22-.12.34-.34.34h-3.84c-.58 0-.87.29-.87.87v2.22c0 .58.29.88.87.88h3.84c.22 0 .34.1.34.33v21.13c0 3.28.83 5.52 2.49 6.74 1.66 1.2 4.1 1.81 7.33 1.81h2.29c.58-.04.87-.36.87-.94v-2.36c0-.58-.29-.87-.87-.87h-1.48c-2.06 0-3.58-.44-4.54-1.31-.97-.88-1.45-2.4-1.45-4.55v-19.65c0-.22.11-.33.34-.33h7.33c.58 0 .88-.3.88-.88v-2.22c0-.58-.3-.87-.88-.87h-7.33c-.23 0-.34-.12-.34-.34v-7.54c0-.58-.3-.87-.88-.87h-2.89zm131.7 0c-.58 0-.87.3-.87.88v7.54c0 .22-.11.34-.34.34h-3.83c-.59 0-.88.29-.88.87v2.22c0 .58.3.88.88.88h3.83c.23 0 .34.1.34.33v21.13c0 3.28.83 5.52 2.49 6.74 1.66 1.2 4.1 1.81 7.33 1.81h2.3c.58-.04.87-.36.87-.94v-2.36c0-.58-.3-.87-.88-.87h-1.48c-2.06 0-3.57-.44-4.54-1.31-.96-.88-1.45-2.4-1.45-4.55v-19.65c0-.22.12-.33.34-.33h7.33c.59 0 .88-.3.88-.88v-2.22c0-.58-.3-.87-.88-.87h-7.33c-.22 0-.34-.12-.34-.34v-7.54c0-.58-.29-.87-.87-.87h-2.9zM811 380.02c-3.32 0-6.13.83-8.44 2.49a12.82 12.82 0 00-4.82 6.8c-.58 2.06-.87 4.8-.87 8.2 0 3.46.31 6.22.94 8.28.9 2.92 2.5 5.2 4.81 6.87a13.97 13.97 0 008.38 2.49c3.19 0 5.94-.83 8.25-2.5a12.82 12.82 0 004.8-6.86c.64-2.06.95-4.82.95-8.27 0-3.37-.31-6.13-.94-8.28a12.48 12.48 0 00-4.75-6.73 13.86 13.86 0 00-8.3-2.5zm35.27 0c-2.96 0-5.5.82-7.6 2.45a12.56 12.56 0 00-4.38 6.5c-.36 1.08-.6 2.29-.7 3.63-.12 1.35-.18 3-.18 4.98 0 3.64.27 6.37.81 8.21.76 2.88 2.28 5.1 4.54 6.67a13.31 13.31 0 007.78 2.35c3.76 0 6.68-1.32 8.75-3.97.09-.13.18-.18.26-.13.1.04.14.13.14.26v2.36c0 3.77-1.07 6.46-3.2 8.08-2.13 1.61-5.57 2.3-10.33 2.08-.58-.09-.87.18-.87.81l-.14 2.7c0 .58.3.89.88.93.5.05 1.2.07 2.15.07 5.03 0 9-1.16 11.91-3.5 2.92-2.33 4.38-6.01 4.38-11.03v-32.04c0-.58-.3-.87-.88-.87h-3.03c-.58 0-.87.29-.87.87v2.29c0 .13-.05.22-.14.27-.08.04-.17 0-.26-.14-2.11-2.55-5.12-3.83-9.02-3.83zm37.01 0c-3.27 0-6.07.87-8.38 2.62a12.46 12.46 0 00-4.6 7c-.28.99-.44 2.05-.51 3.2-.07 1.14-.1 2.68-.1 4.6 0 3.96.42 7.05 1.28 9.3a12.27 12.27 0 004.64 6.19c2.15 1.48 4.8 2.22 7.94 2.22 2.96 0 5.52-.66 7.67-1.99a12.53 12.53 0 004.85-5.35c.27-.45.13-.83-.4-1.14l-1.96-1.08a.72.72 0 00-.67-.07.81.81 0 00-.47.47 8.95 8.95 0 01-3.4 3.67c-1.46.88-3.2 1.34-5.22 1.38-2.42 0-4.43-.6-6.02-1.78a8.25 8.25 0 01-3.13-4.81c-.27-1.03-.4-2.67-.4-4.92 0-.22.11-.33.33-.33h21.54c.58 0 .87-.3.87-.88 0-3.05-.13-5.3-.4-6.73-.63-3.68-2.05-6.52-4.27-8.54-2.22-2.02-5.29-3.03-9.19-3.03zm96.24 0c-3.28 0-6.07.87-8.38 2.62a12.46 12.46 0 00-4.61 7c-.27.99-.44 2.05-.5 3.2-.07 1.14-.1 2.68-.1 4.6 0 3.96.42 7.05 1.27 9.3a12.27 12.27 0 004.65 6.19c2.15 1.48 4.8 2.22 7.94 2.22 2.96 0 5.52-.66 7.67-1.99a12.53 12.53 0 004.85-5.35c.26-.45.13-.83-.4-1.14l-1.96-1.08a.72.72 0 00-.67-.07.81.81 0 00-.47.47 8.95 8.95 0 01-3.4 3.67 10.4 10.4 0 01-5.22 1.38 9.8 9.8 0 01-6.02-1.78 8.25 8.25 0 01-3.13-4.81c-.27-1.03-.4-2.67-.4-4.92 0-.22.1-.33.33-.33h21.54c.58 0 .87-.3.87-.88 0-3.05-.13-5.3-.4-6.73-.63-3.68-2.05-6.52-4.28-8.54-2.22-2.02-5.28-3.03-9.18-3.03zm37.08.2c-1.88 0-3.55.45-5.01 1.35-1.46.9-2.66 2.15-3.6 3.76-.1.14-.17.2-.24.17-.07-.02-.1-.12-.1-.3v-3.77c0-.58-.3-.87-.87-.87h-3.03c-.59 0-.88.29-.88.87v32.3c0 .59.3.88.88.88h3.03c.58 0 .87-.3.87-.88v-19.65c0-2.5.76-4.58 2.29-6.22a8.02 8.02 0 015.79-2.6c1.34-.04 2.44.07 3.3.34.58.18.94 0 1.07-.54l.67-2.96c.14-.53-.02-.9-.47-1.07a7.66 7.66 0 00-3.7-.81zm-205.73 3.97c2.24 0 4.14.6 5.68 1.78a8.37 8.37 0 013.07 4.81c.36 1.3.54 3.57.54 6.8 0 3.1-.18 5.36-.54 6.8a8.77 8.77 0 01-3.1 4.81 8.7 8.7 0 01-5.52 1.78c-2.24 0-4.14-.59-5.68-1.78a8.37 8.37 0 01-3.07-4.81c-.36-1.3-.54-3.57-.54-6.8s.18-5.5.54-6.8a8.76 8.76 0 013.1-4.8 8.7 8.7 0 015.52-1.79zm36.4 0a7.84 7.84 0 018.02 6.53c.17.67.29 1.4.33 2.19.05.78.07 2.32.07 4.6 0 1.89-.02 3.33-.07 4.31-.04.99-.13 1.82-.27 2.5a7.87 7.87 0 01-2.66 4.64 8.03 8.03 0 01-5.41 1.81 8.37 8.37 0 01-8.42-6.52c-.44-1.26-.67-3.53-.67-6.8 0-3.05.23-5.3.67-6.73a9.56 9.56 0 013.07-4.71 8.1 8.1 0 015.35-1.82zm36.01 0c2.29 0 4.18.6 5.69 1.78a8.5 8.5 0 013 4.81c.17.9.3 2.34.4 4.31 0 .23-.11.34-.34.34h-17.3c-.22 0-.33-.11-.33-.34.09-2.15.27-3.68.54-4.57a8.02 8.02 0 012.82-4.61 8.58 8.58 0 015.52-1.72zm96.24 0c2.29 0 4.18.6 5.69 1.78a8.5 8.5 0 013 4.81c.17.9.3 2.34.4 4.31 0 .23-.12.34-.34.34h-17.3c-.22 0-.33-.11-.33-.34.09-2.15.26-3.68.53-4.57a8.02 8.02 0 012.83-4.61 8.58 8.58 0 015.52-1.72z"/>
</svg>
